<mxfile host="app.diagrams.net" modified="2021-09-01T11:55:36.900Z" agent="5.0 (Windows NT 10.0; Win64; x64) AppleWebKit/537.36 (KHTML, like Gecko) Chrome/92.0.4515.159 Safari/537.36 Edg/92.0.902.84" etag="nL4sVk0zpIbY96tysOb9" version="15.0.3" type="github">
  <diagram id="gQd6fM0s0DwRisNx_Sx2" name="Page-1">
    <mxGraphModel dx="1230" dy="979" grid="1" gridSize="10" guides="1" tooltips="1" connect="1" arrows="1" fold="1" page="0" pageScale="1" pageWidth="827" pageHeight="1169" math="1" shadow="0">
      <root>
        <mxCell id="0" />
        <mxCell id="1" parent="0" />
        <mxCell id="a3dDYCwI_e-lyj42jEB_-10" value="&lt;font color=&quot;#74321a&quot; style=&quot;font-size: 18px&quot;&gt;模型建立&lt;/font&gt;" style="rounded=0;whiteSpace=wrap;html=1;fillColor=#FFFFFF;strokeColor=#74321A;" parent="1" vertex="1">
          <mxGeometry y="340" width="820" height="50" as="geometry" />
        </mxCell>
        <mxCell id="9P2CWl6E-dhnrMSSyKwT-6" style="edgeStyle=orthogonalEdgeStyle;rounded=0;orthogonalLoop=1;jettySize=auto;html=1;exitX=0.5;exitY=1;exitDx=0;exitDy=0;entryX=0.5;entryY=0;entryDx=0;entryDy=0;strokeColor=#3E7FA3;" parent="1" source="a3dDYCwI_e-lyj42jEB_-14" target="a3dDYCwI_e-lyj42jEB_-18" edge="1">
          <mxGeometry relative="1" as="geometry" />
        </mxCell>
        <mxCell id="a3dDYCwI_e-lyj42jEB_-14" value="&lt;font style=&quot;font-size: 18px&quot; color=&quot;#3e7fa3&quot;&gt;相关因素确定&lt;/font&gt;" style="rounded=0;whiteSpace=wrap;html=1;strokeColor=#3E7FA3;" parent="1" vertex="1">
          <mxGeometry y="55" width="260" height="50" as="geometry" />
        </mxCell>
        <mxCell id="9P2CWl6E-dhnrMSSyKwT-9" style="edgeStyle=orthogonalEdgeStyle;rounded=0;orthogonalLoop=1;jettySize=auto;html=1;exitX=0.5;exitY=1;exitDx=0;exitDy=0;entryX=0.5;entryY=0;entryDx=0;entryDy=0;strokeColor=#3E7FA3;" parent="1" source="a3dDYCwI_e-lyj42jEB_-15" target="a3dDYCwI_e-lyj42jEB_-20" edge="1">
          <mxGeometry relative="1" as="geometry" />
        </mxCell>
        <mxCell id="a3dDYCwI_e-lyj42jEB_-15" value="&lt;span style=&quot;color: rgb(62 , 127 , 163) ; font-family: &amp;#34;helvetica&amp;#34; ; font-size: 18px ; font-style: normal ; font-weight: 400 ; letter-spacing: normal ; text-align: center ; text-indent: 0px ; text-transform: none ; word-spacing: 0px ; background-color: rgb(255 , 255 , 255) ; display: inline ; float: none&quot;&gt;简化模型&lt;/span&gt;" style="rounded=0;whiteSpace=wrap;html=1;strokeColor=#3E7FA3;" parent="1" vertex="1">
          <mxGeometry x="290" y="55" width="270" height="50" as="geometry" />
        </mxCell>
        <mxCell id="a3dDYCwI_e-lyj42jEB_-16" value="&lt;span style=&quot;color: rgb(62 , 127 , 163) ; font-family: &amp;#34;helvetica&amp;#34; ; font-size: 18px ; font-style: normal ; font-weight: 400 ; letter-spacing: normal ; text-align: center ; text-indent: 0px ; text-transform: none ; word-spacing: 0px ; background-color: rgb(255 , 255 , 255) ; display: inline ; float: none&quot;&gt;最优乘车效率模型建立及求解&lt;/span&gt;" style="rounded=0;whiteSpace=wrap;html=1;strokeColor=#3E7FA3;" parent="1" vertex="1">
          <mxGeometry x="580" y="55" width="240" height="115" as="geometry" />
        </mxCell>
        <mxCell id="9P2CWl6E-dhnrMSSyKwT-7" style="edgeStyle=orthogonalEdgeStyle;rounded=0;orthogonalLoop=1;jettySize=auto;html=1;exitX=0.5;exitY=1;exitDx=0;exitDy=0;entryX=0.5;entryY=0;entryDx=0;entryDy=0;strokeColor=#3E7FA3;" parent="1" source="a3dDYCwI_e-lyj42jEB_-18" target="a3dDYCwI_e-lyj42jEB_-19" edge="1">
          <mxGeometry relative="1" as="geometry" />
        </mxCell>
        <mxCell id="a3dDYCwI_e-lyj42jEB_-18" value="&lt;span style=&quot;color: rgb(62 , 127 , 163) ; font-family: &amp;#34;helvetica&amp;#34; ; font-size: 18px ; font-style: normal ; font-weight: 400 ; letter-spacing: normal ; text-align: center ; text-indent: 0px ; text-transform: none ; word-spacing: 0px ; background-color: rgb(255 , 255 , 255) ; display: inline ; float: none&quot;&gt;利用排队论整合相关因素并对因素进行机理分析&lt;/span&gt;" style="rounded=0;whiteSpace=wrap;html=1;strokeColor=#3E7FA3;" parent="1" vertex="1">
          <mxGeometry y="125" width="260" height="110" as="geometry" />
        </mxCell>
        <mxCell id="UvhaBTMDhB06iQAsD7Xj-23" style="edgeStyle=orthogonalEdgeStyle;rounded=0;orthogonalLoop=1;jettySize=auto;html=1;exitX=1;exitY=0.5;exitDx=0;exitDy=0;entryX=0;entryY=0.5;entryDx=0;entryDy=0;strokeColor=#3E7FA3;fillColor=#3E7FA3;" edge="1" parent="1" source="a3dDYCwI_e-lyj42jEB_-19" target="a3dDYCwI_e-lyj42jEB_-20">
          <mxGeometry relative="1" as="geometry">
            <Array as="points">
              <mxPoint x="270" y="285" />
              <mxPoint x="270" y="180" />
            </Array>
          </mxGeometry>
        </mxCell>
        <mxCell id="a3dDYCwI_e-lyj42jEB_-19" value="&lt;span style=&quot;color: rgb(62 , 127 , 163) ; font-size: 18px&quot;&gt;建立决策模型并初步验证合理性&lt;/span&gt;" style="rounded=0;whiteSpace=wrap;html=1;strokeColor=#3E7FA3;" parent="1" vertex="1">
          <mxGeometry y="255" width="260" height="60" as="geometry" />
        </mxCell>
        <mxCell id="9P2CWl6E-dhnrMSSyKwT-10" style="edgeStyle=orthogonalEdgeStyle;rounded=0;orthogonalLoop=1;jettySize=auto;html=1;exitX=0.5;exitY=1;exitDx=0;exitDy=0;entryX=0.5;entryY=0;entryDx=0;entryDy=0;strokeColor=#3E7FA3;" parent="1" source="a3dDYCwI_e-lyj42jEB_-20" target="a3dDYCwI_e-lyj42jEB_-21" edge="1">
          <mxGeometry relative="1" as="geometry" />
        </mxCell>
        <mxCell id="a3dDYCwI_e-lyj42jEB_-20" value="&lt;span style=&quot;color: rgb(62 , 127 , 163) ; font-size: 18px&quot;&gt;利用真实数据代入决策模型进行求解&lt;/span&gt;" style="rounded=0;whiteSpace=wrap;html=1;strokeColor=#3E7FA3;" parent="1" vertex="1">
          <mxGeometry x="290" y="125" width="270" height="110" as="geometry" />
        </mxCell>
        <mxCell id="a3dDYCwI_e-lyj42jEB_-21" value="&lt;span style=&quot;color: rgb(62 , 127 , 163) ; font-size: 18px&quot;&gt;验证合理性、分析相关因素依赖性&lt;/span&gt;" style="rounded=0;whiteSpace=wrap;html=1;strokeColor=#3E7FA3;" parent="1" vertex="1">
          <mxGeometry x="290" y="255" width="270" height="60" as="geometry" />
        </mxCell>
        <mxCell id="a3dDYCwI_e-lyj42jEB_-22" value="&lt;span style=&quot;color: rgb(62 , 127 , 163) ; font-family: &amp;#34;helvetica&amp;#34; ; font-size: 18px&quot;&gt;优先安排方案模型建立及求解&lt;/span&gt;" style="rounded=0;whiteSpace=wrap;html=1;strokeColor=#3E7FA3;" parent="1" vertex="1">
          <mxGeometry x="580" y="205" width="240" height="110" as="geometry" />
        </mxCell>
        <mxCell id="UvhaBTMDhB06iQAsD7Xj-7" value="&lt;font color=&quot;#74321a&quot;&gt;&lt;span style=&quot;font-size: 18px&quot;&gt;数据准备&lt;/span&gt;&lt;/font&gt;" style="rounded=0;whiteSpace=wrap;html=1;strokeColor=#74321A;" vertex="1" parent="1">
          <mxGeometry y="-90" width="820" height="50" as="geometry" />
        </mxCell>
        <mxCell id="UvhaBTMDhB06iQAsD7Xj-8" style="edgeStyle=orthogonalEdgeStyle;rounded=0;orthogonalLoop=1;jettySize=auto;html=1;exitX=1;exitY=0.5;exitDx=0;exitDy=0;entryX=0;entryY=0.5;entryDx=0;entryDy=0;strokeColor=#98C38B;" edge="1" parent="1" source="UvhaBTMDhB06iQAsD7Xj-9" target="UvhaBTMDhB06iQAsD7Xj-11">
          <mxGeometry relative="1" as="geometry" />
        </mxCell>
        <mxCell id="UvhaBTMDhB06iQAsD7Xj-9" value="&lt;font color=&quot;#98c38b&quot;&gt;&lt;span style=&quot;font-size: 18px&quot;&gt;数据收集&lt;/span&gt;&lt;/font&gt;" style="rounded=0;whiteSpace=wrap;html=1;strokeColor=#98C38B;" vertex="1" parent="1">
          <mxGeometry y="-20" width="260" height="50" as="geometry" />
        </mxCell>
        <mxCell id="UvhaBTMDhB06iQAsD7Xj-10" style="edgeStyle=orthogonalEdgeStyle;rounded=0;orthogonalLoop=1;jettySize=auto;html=1;exitX=1;exitY=0.5;exitDx=0;exitDy=0;entryX=0;entryY=0.5;entryDx=0;entryDy=0;strokeColor=#98C38B;" edge="1" parent="1" source="UvhaBTMDhB06iQAsD7Xj-11" target="UvhaBTMDhB06iQAsD7Xj-12">
          <mxGeometry relative="1" as="geometry" />
        </mxCell>
        <mxCell id="UvhaBTMDhB06iQAsD7Xj-21" style="edgeStyle=orthogonalEdgeStyle;rounded=0;orthogonalLoop=1;jettySize=auto;html=1;exitX=0.5;exitY=1;exitDx=0;exitDy=0;entryX=0;entryY=0.25;entryDx=0;entryDy=0;strokeColor=#9EBD75;fillColor=#3E7FA3;" edge="1" parent="1" source="UvhaBTMDhB06iQAsD7Xj-11" target="a3dDYCwI_e-lyj42jEB_-20">
          <mxGeometry relative="1" as="geometry">
            <Array as="points">
              <mxPoint x="425" y="40" />
              <mxPoint x="270" y="40" />
              <mxPoint x="270" y="153" />
            </Array>
          </mxGeometry>
        </mxCell>
        <mxCell id="UvhaBTMDhB06iQAsD7Xj-11" value="&lt;span style=&quot;color: rgb(152 , 195 , 139) ; font-size: 18px&quot;&gt;数据清洗&lt;/span&gt;" style="rounded=0;whiteSpace=wrap;html=1;strokeColor=#98C38B;" vertex="1" parent="1">
          <mxGeometry x="290" y="-20" width="270" height="50" as="geometry" />
        </mxCell>
        <mxCell id="UvhaBTMDhB06iQAsD7Xj-18" style="edgeStyle=orthogonalEdgeStyle;rounded=0;orthogonalLoop=1;jettySize=auto;html=1;exitX=1;exitY=0.5;exitDx=0;exitDy=0;entryX=0.5;entryY=1;entryDx=0;entryDy=0;strokeColor=#9EBD75;" edge="1" parent="1" source="UvhaBTMDhB06iQAsD7Xj-12" target="a3dDYCwI_e-lyj42jEB_-19">
          <mxGeometry relative="1" as="geometry" />
        </mxCell>
        <mxCell id="UvhaBTMDhB06iQAsD7Xj-12" value="&lt;span style=&quot;color: rgb(152 , 195 , 139) ; font-size: 18px&quot;&gt;合理假设部分数据&lt;/span&gt;" style="rounded=0;whiteSpace=wrap;html=1;strokeColor=#98C38B;" vertex="1" parent="1">
          <mxGeometry x="580" y="-20" width="240" height="50" as="geometry" />
        </mxCell>
      </root>
    </mxGraphModel>
  </diagram>
</mxfile>
